bicep_curl
version=1
nRows=18
nColumns=17
inDegrees=yes

# SIMM Motion File Header:
name bicep_curl
datacolumns 17
datarows 18
otherdata 1
range 0.15136954999999999161 0.16717171000000000114
endheader
time	/jointset/r_shoulder/r_shoulder_elev/value	/jointset/r_shoulder/r_shoulder_elev/speed	/jointset/r_elbow/r_elbow_flex/value	/jointset/r_elbow/r_elbow_flex/speed	/forceset/TRIlong/activation	/forceset/TRIlong/fiber_length	/forceset/TRIlat/activation	/forceset/TRIlat/fiber_length	/forceset/TRImed/activation	/forceset/TRImed/fiber_length	/forceset/BIClong/activation	/forceset/BIClong/fiber_length	/forceset/BICshort/activation	/forceset/BICshort/fiber_length	/forceset/BRA/activation	/forceset/BRA/fiber_length
0.15136954999999999161	     -0.07458994627644192910	     -0.79199994298823406247	     39.35831226431893270501	    259.21726512075628079401	      0.02083965711315237390	      0.15180906499735760673	      0.03180956916244774557	      0.08572069875634082126	      0.03415488256288786578	      0.08071887668017882489	      0.34829303805631822710	      0.13377367887402802360	      0.11132126601506162067	      0.13368549050828834601	      0.04461125547073383629	      0.08415057243463905379
0.15222396999999998624	     -0.07525768231677128217	     -0.77088817997053604714	     39.57975822349612826656	    259.13624047310815967649	      0.02083018269722049925	      0.15189588928301034354	      0.03218387440886571332	      0.08580350467227995659	      0.03445776240061061702	      0.08080311495428604829	      0.35147530687699546359	      0.13364603259015125913	      0.11191705757671729926	      0.13356713379106954775	      0.04433919037193265883	      0.08410299899778497790
0.15390801000000001175	     -0.07652141387487033930	     -0.73093448403386529488	     40.01602187605632110490	    258.98246823055109189227	      0.02081182144313476617	      0.15206691217726320264	      0.03277012819923475623	      0.08596881538291673008	      0.03493292551289216979	      0.08097059795778714653	      0.35698882661222169910	      0.13339236201065748921	      0.11288836561188415886	      0.13333183587171784645	      0.04381305510116724478	      0.08400938812122921151
0.15521992000000001122	     -0.07746356517311776824	     -0.70681236761498278387	     40.35571690177670944877	    258.88546680993459858655	      0.02079780006256771313	      0.15219946576540657746	      0.03311681325901154327	      0.08609902160361403156	      0.03521444380202139179	      0.08110186474859348849	      0.36067880557688281051	      0.13319354493353385838	      0.11349158913025240991	      0.13314714235114055718	      0.04341227187508791413	      0.08393658880949395051
0.15653184000000000542	     -0.07838001088606784406	     -0.69202307630465531574	     40.69530601045868678511	    258.81768339570123771409	      0.02078402128440121066	      0.15233263597930277178	      0.03338965754515985096	      0.08623026548747143860	      0.03543633879346606841	      0.08123397252892179676	      0.36391565667147696139	      0.13299417367593643902	      0.11398696645386358073	      0.13296153920036182794	      0.04301925989516102583	      0.08386388646593553875
0.15784375999999999962	     -0.07928435107217118860	     -0.68866504728836952509	     41.03482904771593808846	    258.78592531579403157593	      0.02077048099680708221	      0.15246441009299444014	      0.03360446389107615839	      0.08636216832436745261	      0.03561128728529978915	      0.08136627673832655394	      0.36675846083252711116	      0.13279455285829627753	      0.11439395384883080387	      0.13277520251281166308	      0.04263385653797453767	      0.08379127098700833720
0.15899251000000000356	     -0.08007844549003570456	     -0.69541743814456424833	     41.33210759978253179270	    258.78740201892554750884	      0.02075881735883169932	      0.15258096396644346693	      0.03375471862208843932	      0.08647811970850047270	      0.03573382325133696302	      0.08148257941713941965	      0.36896412612398338249	      0.13261971147898024559	      0.11469032188581940179	      0.13261152145041868455	      0.04230250837303669437	      0.08372774999079149461
0.16000000000000000333	     -0.08078534611140003596	     -0.70907065697090054801	     41.59284412565681776641	    258.81243209381437964112	      0.02074873371088553284	      0.15268209811296787337	      0.03386298003374738075	      0.08658006449600320897	      0.03582221185781477024	      0.08158462979348136968	      0.37070525287767541744	      0.13246640164465647849	      0.11491152897422027279	      0.13246759971985538895	      0.04201652152287300990	      0.08367208234129533406
0.16000682999999998879	     -0.08079018945982492650	     -0.70918662323238479406	     41.59461181538249974210	    258.81267076217562816964	      0.02074866581185771594	      0.15268278703509127747	      0.03386364836518413607	      0.08658075625380931561	      0.03582275779913801639	      0.08158532221838643572	      0.37071648421152136876	      0.13246536251202922774	      0.11491291797194432001	      0.13246662290046321009	      0.04201459730234814033	      0.08367170508049920352
0.16001366000000000200	     -0.08079503360139511647	     -0.70930290794957029377	     41.59637950674159867503	    258.81291038672333115755	      0.02074859791900034861	      0.15268347592815290081	      0.03387418660296181300	      0.08658144685642037153	      0.03583158120819726622	      0.08158601372724588741	      0.37073826241802060322	      0.13246432335572300154	      0.11496293868386461834	      0.13246564580466088645	      0.04201267327666425438	      0.08367132782127624513
0.16004782000000000730	     -0.08081927337291054669	     -0.70988842996479040170	     41.60522057638139159508	    258.81412058004832488223	      0.02074825844789636789	      0.15268692098236705257	      0.03392669305169022931	      0.08658486768910730880	      0.03587554507137433180	      0.08158944600572889949	      0.37084696414553008914	      0.13245912530077197378	      0.11521227126195796031	      0.13246075086560388234	      0.04200305325465006345	      0.08366944099636129673
0.16021858999999999407	     -0.08094075249879068013	     -0.71282441573650601185	     41.64941878477693393279	    258.82019339384595468800	      0.02074656370236192815	      0.15270413429687820783	      0.03418424416356342227	      0.08660130843256927391	      0.03609122982296498333	      0.08160608340279533468	      0.37138489103767169386	      0.13243312116947505985	      0.11643790615240739994	      0.13243608464319917006	      0.04195503457504166922	      0.08366000911163623543
0.16086128999999999012	     -0.08140187757340938690	     -0.72115030252523992793	     41.81576817098482479196	    258.83477196603172387768	      0.02074021986467006196	      0.15276883920618014590	      0.03508370408932283413	      0.08665854346391711760	      0.03684495209928933396	      0.08166515386013731281	      0.37332988474856876326	      0.13233499954708199953	      0.12075624534126286336	      0.13234060042187964501	      0.04177539959485406657	      0.08362452022522567918
0.16150398999999998617	     -0.08186623041930565781	     -0.72269433998336252145	     41.98212051353446838675	    258.82888343343938686303	      0.02073393004473193801	      0.15283347548239276104	      0.03588256335683784326	      0.08671401213930163276	      0.03751500079214881850	      0.08172302824023655599	      0.37515557214350392368	      0.13223652958035975180	      0.12465030958501174818	      0.13224159526250042762	      0.04159746612968553275	      0.08358904414234061275
0.16252507999999998844	     -0.08260013892359652221	     -0.71262528822260073902	     42.24638747713659370220	    258.78195979838466200817	      0.02072404703915789459	      0.15293607442790388418	      0.03697292830778105277	      0.08680337173103840065	      0.03843052743421540574	      0.08181607049119003772	      0.37782995138905234311	      0.13207951925362965140	      0.13007982576977461520	      0.13207887391843387004	      0.04131823000530975010	      0.08353270812179433569
0.16389011000000000551	     -0.08355525900547670914	     -0.68523210084576013923	     42.59956483613829192336	    258.67812570242620040517	      0.02071104305594435174	      0.15307305100059359626	      0.03814657674513001473	      0.08692665544498502650	      0.03941729037556909732	      0.08194324996409366180	      0.38101478035087749108	      0.13186884239197940727	      0.13612336624237911242	      0.13185389702087441099	      0.04095145539536895057	      0.08345745196786945319
0.16568276000000001225	     -0.08474739548919478505	     -0.64594667823895957071	     43.06315159275268200645	    258.53411991967993799335	      0.02069432013048454200	      0.15325241987582585712	      0.03930608202338486262	      0.08709399035992716753	      0.04039358163557040665	      0.08211417137532714405	      0.38460912489279125426	      0.13159135501229585197	      0.14239141773404137559	      0.13155113410407462404	      0.04048085916687101105	      0.08335873098247260915
0.16717171000000000114	     -0.08569106626654761361	     -0.62405534494175574078	     43.44802691495773672159	    258.44873335807420744459	      0.02068073027968695202	      0.15340172592437695265	      0.04002135683472826666	      0.08723637737121976710	      0.04099660546540681572	      0.08225838278090615019	      0.38716062283960178680	      0.13136052634607348066	      0.14647896704063695372	      0.13129722863463377802	      0.04009931511319902997	      0.08327683726688386856
